<svg xmlns="http://www.w3.org/2000/svg" width="128" height="128" preserveAspectRatio="xMidYMid meet" version="1.0" viewBox="0 0 96 96"><metadata>Created by potrace 1.14, written by Peter Selinger 2001-2017</metadata><g fill="#000" stroke="none"><path d="M328 863 c-29 -18 -48 -52 -48 -84 0 -23 18 -61 34 -71 6 -4 -5 -8 -25 -8 -20 0 -41 -6 -47 -13 -6 -7 -21 -52 -33 -100 -20 -82 -23 -86 -36 -67 -12 17 -23 20 -61 18 -40 -3 -47 -6 -50 -26 -5 -34 15 -52 60 -52 l40 0 -21 -34 c-20 -31 -21 -46 -19 -178 l3 -143 65 0 65 0 3 38 3 37 219 0 219 0 3 -38 3 -37 65 0 65 0 3 143 c2 132 1 147 -19 178 l-21 34 40 0 c45 0 65 18 60 52 -3 20 -10 23 -50 26 -37 2 -49 -1 -60 -17 -13 -18 -16 -12 -37 67 -13 48 -28 93 -34 100 -7 8 -48 12 -143 12 -133 0 -134 0 -117 20 15 17 30 20 104 20 100 0 119 5 119 30 0 46 -38 68 -67 39 -8 -8 -17 -7 -32 3 -17 10 -25 10 -40 1 -23 -14 -59 0 -89 35 -26 29 -89 37 -124 15z m28 -74 c10 -17 -13 -36 -27 -22 -12 12 -4 33 11 33 5 0 12 -5 16 -11z" transform="translate(0.000000,96.000000) scale(0.100000,-0.100000)"/></g></svg>